<?xml version="1.0" encoding="utf-8"?>
<!-- Generator: Adobe Illustrator 25.0.0, SVG Export Plug-In . SVG Version: 6.00 Build 0)  -->
<svg version="1.1" id="Camada_1" xmlns="http://www.w3.org/2000/svg" xmlns:xlink="http://www.w3.org/1999/xlink" x="0px" y="0px"
	 viewBox="0 0 434 127" style="enable-background:new 0 0 434 127;" xml:space="preserve">
<style type="text/css">
	.st0{fill-rule:evenodd;clip-rule:evenodd;fill:#EEEEEF;}
	.st1{fill-rule:evenodd;clip-rule:evenodd;fill:#FFFFFF;}
	.st2{fill:#FFFFFF;}
</style>
<g>
	<g>
		<path class="st0" d="M112.92,31.77c0,7.29,2.09,14.1,5.69,19.85c0.91,1.45,1.92,2.84,3.01,4.15c1.43,1.71,3.01,3.29,4.72,4.72
			c1.31,1.09,2.69,2.1,4.15,3.01c5.75-3.61,12.56-5.69,19.85-5.69c-7.13,0-13.59-2.87-18.3-7.51c-0.08-0.08-0.16-0.15-0.23-0.23
			c-4.64-4.7-7.51-11.17-7.51-18.3c0-7.25,2.96-13.81,7.74-18.53c-1.49-3.64-3.41-7.06-5.7-10.19c-3.02,2.53-5.64,5.52-7.74,8.87
			C115,17.67,112.92,24.47,112.92,31.77L112.92,31.77z M135.69,31.77c0,8.09,6.56,14.66,14.66,14.66c8.09,0,14.66-6.56,14.66-14.66
			c0-8.09-6.56-14.66-14.66-14.66C142.25,17.11,135.69,23.67,135.69,31.77L135.69,31.77z"/>
		<path class="st1" d="M150.34,57.81c-7.29,0-14.1,2.09-19.85,5.69c-4.8,3.01-8.87,7.08-11.88,11.88
			c3.61,5.75,5.69,12.56,5.69,19.85c0-14.38,11.66-26.04,26.04-26.04c7.25,0,13.81,2.96,18.53,7.74c3.64-1.49,7.06-3.41,10.19-5.7
			C171.94,62.72,161.48,57.81,150.34,57.81L150.34,57.81z M150.34,80.58c-8.09,0-14.66,6.56-14.66,14.66s6.56,14.66,14.66,14.66
			c8.09,0,14.66-6.56,14.66-14.66S158.44,80.58,150.34,80.58L150.34,80.58z"/>
		<path class="st0" d="M124.3,95.23c0-7.29-2.09-14.1-5.69-19.85c-3.01-4.8-7.08-8.87-11.88-11.88c-5.75,3.61-12.56,5.69-19.85,5.69
			c23.45,0,34.63,28.44,18.3,44.57c1.49,3.64,3.41,7.06,5.7,10.19C119.39,116.83,124.3,106.37,124.3,95.23L124.3,95.23z
			 M101.53,95.23c0-8.09-6.56-14.66-14.66-14.66c-8.09,0-14.66,6.56-14.66,14.66s6.56,14.66,14.66,14.66
			C94.97,109.89,101.53,103.33,101.53,95.23L101.53,95.23z"/>
		<path class="st1" d="M86.88,46.42c8.09,0,14.66-6.56,14.66-14.66c0-8.09-6.56-14.66-14.66-14.66c-8.09,0-14.66,6.56-14.66,14.66
			C72.22,39.86,78.78,46.42,86.88,46.42L86.88,46.42z M115.6,55.76c1.09-1.31,2.1-2.69,3.01-4.15c-3.61-5.75-5.69-12.56-5.69-19.85
			c0,7.13-2.87,13.59-7.51,18.3c-0.08,0.08-0.16,0.16-0.23,0.23c-4.7,4.64-11.17,7.51-18.3,7.51c-7.25,0-13.81-2.96-18.53-7.74
			c-3.64,1.49-7.06,3.41-10.19,5.7c2.53,3.02,5.52,5.64,8.87,7.74c5.75,3.61,12.56,5.69,19.85,5.69s14.1-2.09,19.85-5.69
			c1.45-0.91,2.84-1.92,4.15-3.01C112.58,59.06,114.17,57.47,115.6,55.76L115.6,55.76z"/>
	</g>
	<g>
		<g>
			<path class="st2" d="M230.02,87.59l-3.46,0.17c-2.93,0-4.98-0.51-6.17-1.52s-1.77-2.84-1.77-5.49V67.57H202.4v15.54
				c0,2.76-1.13,4.25-3.38,4.48l-3.46,0.17c-2.93,0-4.98-0.51-6.17-1.52s-1.77-2.84-1.77-5.49V40.03c0-1.91,0.48-3.18,1.44-3.8
				s2.14-0.93,3.55-0.93l1.86,0.08c2.93,0,4.98,0.51,6.17,1.52s1.77,2.84,1.77,5.49v13.52h16.22V40.03c0-1.91,0.48-3.18,1.44-3.8
				s2.14-0.93,3.55-0.93l1.86,0.08c2.93,0,4.98,0.51,6.17,1.52c1.18,1.01,1.77,2.84,1.77,5.49v40.72
				C233.4,85.87,232.27,87.36,230.02,87.59z"/>
			<path class="st2" d="M238.05,38.25c1.41-1.41,3.32-2.11,5.74-2.11h24.41c2.59,0,4.11,0.9,4.56,2.7c0.28,1.24,0.42,2.22,0.42,2.96
				c0,3.94-1.69,5.91-5.07,5.91h-17.82v7.86h15.54c2.59,0,4.11,0.9,4.56,2.7c0.28,1.13,0.42,2.08,0.42,2.87
				c0,3.94-1.66,5.91-4.98,5.91h-15.54v8.87h18.25c2.59,0,4.11,0.9,4.56,2.7c0.28,1.24,0.42,2.22,0.42,2.96c0,4-1.69,6-5.07,6
				h-24.67c-2.42,0-4.34-0.7-5.74-2.11s-2.11-3.32-2.11-5.74V44C235.94,41.58,236.64,39.66,238.05,38.25z"/>
			<path class="st2" d="M278.17,85.47c-1.41-1.41-2.11-3.32-2.11-5.74V39.94c0-1.91,0.48-3.18,1.44-3.8s2.14-0.93,3.55-0.93
				l1.86,0.08c2.93,0,4.98,0.51,6.17,1.52c1.18,1.01,1.77,2.84,1.77,5.49v33.37h15.88c2.53,0,4.08,0.93,4.65,2.79
				c0.28,1.24,0.42,2.22,0.42,2.96c0,4.11-1.75,6.17-5.24,6.17h-22.64C281.5,87.59,279.58,86.88,278.17,85.47z"/>
			<path class="st2" d="M325.73,87.59l-3.46,0.17c-2.93,0-4.98-0.51-6.17-1.52s-1.77-2.84-1.77-5.49V40.96c0-1.13,0.3-2.03,0.89-2.7
				c0.59-0.68,1.51-1.21,2.75-1.6c3.77-1.3,8.42-1.94,13.94-1.94c7.6,0,13.5,1.63,17.7,4.9s6.29,7.8,6.29,13.6
				c0,5.52-1.72,9.91-5.15,13.18c-1.75,1.63-3.94,2.89-6.59,3.76s-5.66,1.31-9.04,1.31h-6v11.66
				C329.11,85.87,327.99,87.36,325.73,87.59z M338.95,58.19c1.27-1.13,1.9-2.79,1.9-4.98c0-2.14-0.66-3.79-1.99-4.94
				c-1.32-1.15-3.25-1.73-5.79-1.73c-1.86,0-3.21,0.08-4.05,0.25v13.09h4.48C335.87,59.88,337.69,59.32,338.95,58.19z"/>
		</g>
	</g>
	<g>
		<g>
			<path class="st2" d="M313.45,103.14l-0.65-1.78h-4.5l-0.67,1.78h-3.4l4.75-11.14h3.4l4.59,11.14H313.45z M309.22,98.94h2.7
				l-1.33-3.64L309.22,98.94z"/>
			<path class="st2" d="M329.68,92.53c0.93,0.5,1.65,1.18,2.18,2.06s0.79,1.86,0.79,2.95c0,1.1-0.26,2.1-0.79,2.98
				s-1.25,1.58-2.18,2.08s-1.96,0.75-3.11,0.75c-1.15,0-2.19-0.25-3.12-0.75s-1.64-1.2-2.17-2.08s-0.79-1.88-0.79-2.98
				c0-1.09,0.26-2.07,0.79-2.95s1.25-1.56,2.17-2.06c0.92-0.5,1.96-0.75,3.12-0.75C327.72,91.79,328.76,92.04,329.68,92.53z
				 M325.27,94.93c-0.42,0.26-0.75,0.63-1,1.09s-0.37,0.97-0.37,1.53c0,0.56,0.12,1.08,0.37,1.54c0.25,0.47,0.58,0.83,1,1.1
				c0.42,0.27,0.87,0.41,1.36,0.41c0.48,0,0.92-0.13,1.33-0.41c0.41-0.27,0.73-0.64,0.96-1.1c0.23-0.46,0.35-0.98,0.35-1.55
				c0-0.56-0.12-1.07-0.35-1.53c-0.23-0.46-0.55-0.82-0.95-1.09c-0.4-0.26-0.85-0.4-1.33-0.4S325.68,94.67,325.27,94.93z"/>
			<path class="st2" d="M341.44,91.99h3.02v11.14h-2.81l-4.72-6.2v6.2h-3.04V91.99h2.83l4.72,6.21V91.99z"/>
			<path class="st2" d="M353.61,97.37h2.85v4.53c-0.6,0.42-1.35,0.77-2.24,1.05c-0.89,0.28-1.73,0.41-2.53,0.41
				c-1.13,0-2.16-0.25-3.07-0.75s-1.63-1.19-2.15-2.07c-0.52-0.88-0.78-1.87-0.78-2.97c0-1.09,0.27-2.08,0.8-2.96
				c0.54-0.88,1.28-1.57,2.23-2.07c0.95-0.5,2.01-0.75,3.19-0.75c0.85,0,1.7,0.15,2.54,0.46c0.85,0.31,1.57,0.73,2.16,1.26
				l-1.88,2.26c-0.38-0.37-0.83-0.67-1.34-0.89c-0.51-0.22-1.01-0.33-1.5-0.33c-0.53,0-1.01,0.13-1.44,0.4
				c-0.43,0.26-0.77,0.63-1.01,1.09s-0.37,0.97-0.37,1.53c0,0.57,0.12,1.09,0.37,1.56c0.25,0.47,0.59,0.83,1.03,1.1
				c0.43,0.27,0.92,0.4,1.45,0.4c0.48,0,1.04-0.15,1.68-0.46V97.37z"/>
		</g>
	</g>
</g>
</svg>
