<?xml version="1.0" encoding="utf-8"?>
<!-- Generator: Adobe Illustrator 25.0.0, SVG Export Plug-In . SVG Version: 6.00 Build 0)  -->
<svg version="1.1" id="Camada_1" xmlns="http://www.w3.org/2000/svg" xmlns:xlink="http://www.w3.org/1999/xlink" x="0px" y="0px"
	 viewBox="0 0 1000 1000" style="enable-background:new 0 0 1000 1000;" xml:space="preserve">
<style type="text/css">
	.st0{fill-rule:evenodd;clip-rule:evenodd;fill:#EEEEEF;}
	.st1{fill-rule:evenodd;clip-rule:evenodd;fill:#FFFFFF;}
	.st2{fill:#FFFFFF;}
</style>
<g>
	<path class="st0" d="M464.29,260.15c0,25.03,7.16,48.39,19.54,68.14c3.13,4.98,6.58,9.74,10.34,14.23
		c4.91,5.87,10.34,11.3,16.22,16.22c4.49,3.76,9.25,7.21,14.23,10.34c19.75-12.38,43.11-19.54,68.14-19.54
		c-24.48,0-46.66-9.84-62.8-25.78c-0.27-0.26-0.54-0.53-0.8-0.8c-15.94-16.14-25.78-38.32-25.78-62.8
		c0-24.89,10.17-47.4,26.58-63.61c-5.13-12.49-11.72-24.22-19.57-34.98c-10.37,8.67-19.35,18.95-26.56,30.45
		C471.45,211.76,464.29,235.12,464.29,260.15L464.29,260.15z M542.44,260.15c0,27.78,22.52,50.31,50.31,50.31
		s50.31-22.52,50.31-50.31c0-27.79-22.52-50.31-50.31-50.31S542.44,232.36,542.44,260.15L542.44,260.15z"/>
	<path class="st1" d="M592.75,349.53c-25.03,0-48.39,7.16-68.14,19.54c-16.48,10.33-30.46,24.31-40.79,40.79
		c12.38,19.75,19.54,43.11,19.54,68.14c0-49.37,40.02-89.39,89.39-89.39c24.89,0,47.4,10.17,63.61,26.58
		c12.49-5.13,24.22-11.72,34.98-19.57C666.88,366.38,630.98,349.53,592.75,349.53L592.75,349.53z M592.75,427.69
		c-27.79,0-50.31,22.52-50.31,50.31c0,27.79,22.52,50.31,50.31,50.31s50.31-22.52,50.31-50.31
		C643.06,450.21,620.54,427.69,592.75,427.69L592.75,427.69z"/>
	<path class="st0" d="M503.37,478c0-25.03-7.16-48.39-19.54-68.14c-10.32-16.47-24.31-30.46-40.79-40.79
		c-19.75,12.38-43.11,19.54-68.14,19.54c80.48,0,118.88,97.62,62.8,152.99c5.13,12.49,11.72,24.22,19.57,34.98
		C486.51,552.13,503.37,516.22,503.37,478L503.37,478z M425.21,478c0-27.79-22.52-50.31-50.31-50.31
		c-27.79,0-50.31,22.52-50.31,50.31c0,27.79,22.52,50.31,50.31,50.31C402.69,528.31,425.21,505.78,425.21,478L425.21,478z"/>
	<path class="st1" d="M374.9,310.46c27.78,0,50.31-22.52,50.31-50.31c0-27.79-22.52-50.31-50.31-50.31
		c-27.79,0-50.31,22.52-50.31,50.31C324.59,287.93,347.12,310.46,374.9,310.46L374.9,310.46z M473.49,342.52
		c3.76-4.49,7.21-9.25,10.34-14.23c-12.38-19.75-19.54-43.11-19.54-68.14c0,24.48-9.84,46.66-25.78,62.8
		c-0.27,0.27-0.53,0.54-0.8,0.8c-16.14,15.94-38.32,25.78-62.8,25.78c-24.89,0-47.4-10.17-63.61-26.58
		c-12.49,5.13-24.22,11.72-34.98,19.57c8.67,10.37,18.95,19.35,30.45,26.56c19.75,12.38,43.11,19.54,68.14,19.54
		c25.03,0,48.39-7.16,68.14-19.54c4.98-3.12,9.74-6.58,14.23-10.34C463.15,353.82,468.57,348.39,473.49,342.52L473.49,342.52z"/>
</g>
<g>
	<g>
		<path class="st2" d="M340.59,785.05l-11.89,0.58c-10.05,0-17.11-1.74-21.17-5.22s-6.09-9.76-6.09-18.85v-45.23h-55.67v53.35
			c0,9.47-3.87,14.59-11.6,15.37l-11.89,0.58c-10.05,0-17.11-1.74-21.17-5.22c-4.06-3.48-6.09-9.76-6.09-18.85V621.81
			c0-6.57,1.64-10.92,4.93-13.05c3.29-2.13,7.35-3.19,12.18-3.19l6.38,0.29c10.05,0,17.11,1.74,21.17,5.22
			c4.06,3.48,6.09,9.76,6.09,18.85v46.39h55.67v-54.51c0-6.57,1.64-10.92,4.93-13.05c3.29-2.13,7.35-3.19,12.18-3.19l6.38,0.29
			c10.05,0,17.11,1.74,21.17,5.22s6.09,9.76,6.09,18.85v139.76C352.19,779.16,348.32,784.28,340.59,785.05z"/>
		<path class="st2" d="M368.14,615.72c4.83-4.83,11.41-7.25,19.72-7.25h83.8c8.89,0,14.11,3.09,15.66,9.28
			c0.97,4.25,1.45,7.64,1.45,10.15c0,13.53-5.8,20.3-17.4,20.3h-61.18v26.97h53.35c8.89,0,14.11,3.09,15.66,9.28
			c0.97,3.87,1.45,7.15,1.45,9.86c0,13.53-5.7,20.3-17.11,20.3h-53.35v30.45h62.63c8.89,0,14.11,3.09,15.66,9.28
			c0.97,4.25,1.45,7.64,1.45,10.15c0,13.73-5.8,20.59-17.4,20.59h-84.67c-8.31,0-14.88-2.42-19.72-7.25
			c-4.83-4.83-7.25-11.41-7.25-19.72V635.43C360.89,627.12,363.3,620.55,368.14,615.72z"/>
		<path class="st2" d="M505.87,777.81c-4.83-4.83-7.25-11.41-7.25-19.72V621.52c0-6.57,1.64-10.92,4.93-13.05
			c3.29-2.13,7.35-3.19,12.18-3.19l6.38,0.29c10.05,0,17.11,1.74,21.17,5.22s6.09,9.76,6.09,18.85v114.54h54.51
			c8.7,0,14.01,3.19,15.95,9.57c0.97,4.25,1.45,7.64,1.45,10.15c0,14.11-5.99,21.17-17.98,21.17h-77.71
			C517.27,785.05,510.7,782.64,505.87,777.81z"/>
		<path class="st2" d="M669.12,785.05l-11.89,0.58c-10.05,0-17.11-1.74-21.17-5.22s-6.09-9.76-6.09-18.85V625
			c0-3.87,1.01-6.96,3.04-9.28c2.03-2.32,5.17-4.16,9.42-5.51c12.95-4.45,28.9-6.67,47.84-6.67c26.1,0,46.35,5.61,60.75,16.82
			s21.6,26.77,21.6,46.68c0,18.94-5.9,34.02-17.69,45.23c-5.99,5.61-13.53,9.91-22.62,12.9c-9.08,3-19.43,4.5-31.03,4.5h-20.59
			v40.01C680.71,779.16,676.85,784.28,669.12,785.05z M714.5,684.15c4.35-3.87,6.52-9.57,6.52-17.11c0-7.35-2.27-13-6.81-16.96
			c-4.54-3.96-11.16-5.94-19.86-5.94c-6.38,0-11.02,0.29-13.92,0.87v44.94h15.37C703.91,689.95,710.15,688.01,714.5,684.15z"/>
	</g>
</g>
<g>
	<g>
		<path class="st2" d="M424.64,838.44l-2.24-6.11h-15.44l-2.29,6.11H393l16.31-38.24h11.67l15.77,38.24H424.64z M410.13,824.04h9.27
			l-4.58-12.49L410.13,824.04z"/>
		<path class="st2" d="M480.37,802.05c3.18,1.71,5.67,4.06,7.47,7.06c1.8,3,2.7,6.37,2.7,10.12c0,3.78-0.9,7.19-2.7,10.23
			c-1.8,3.04-4.29,5.42-7.47,7.15c-3.18,1.73-6.74,2.59-10.67,2.59c-3.96,0-7.53-0.86-10.69-2.59c-3.16-1.73-5.65-4.11-7.45-7.15
			c-1.8-3.04-2.7-6.45-2.7-10.23c0-3.75,0.9-7.12,2.7-10.12c1.8-3,4.28-5.35,7.45-7.06c3.16-1.71,6.73-2.56,10.69-2.56
			C473.63,799.49,477.19,800.34,480.37,802.05z M465.2,810.29c-1.44,0.91-2.58,2.16-3.44,3.74c-0.85,1.58-1.28,3.34-1.28,5.26
			s0.43,3.69,1.28,5.29c0.85,1.6,2,2.86,3.44,3.79c1.44,0.93,2.99,1.39,4.66,1.39c1.64,0,3.15-0.46,4.56-1.39
			c1.4-0.93,2.5-2.18,3.3-3.76c0.8-1.58,1.2-3.35,1.2-5.32c0-1.93-0.4-3.68-1.2-5.26c-0.8-1.58-1.89-2.83-3.27-3.74
			c-1.38-0.91-2.91-1.36-4.58-1.36C468.19,808.92,466.64,809.38,465.2,810.29z"/>
		<path class="st2" d="M520.71,800.2h10.37v38.24h-9.66l-16.2-21.28v21.28H494.8V800.2h9.71l16.2,21.33V800.2z"/>
		<path class="st2" d="M562.5,818.63h9.76v15.55c-2.07,1.46-4.64,2.66-7.69,3.6c-3.06,0.95-5.95,1.42-8.67,1.42
			c-3.89,0-7.4-0.86-10.53-2.59s-5.58-4.1-7.36-7.12c-1.78-3.02-2.67-6.42-2.67-10.2c0-3.75,0.92-7.13,2.76-10.15
			c1.84-3.02,4.38-5.38,7.64-7.09c3.25-1.71,6.9-2.56,10.94-2.56c2.91,0,5.82,0.53,8.73,1.58c2.91,1.06,5.38,2.49,7.42,4.31
			l-6.44,7.75c-1.31-1.27-2.85-2.29-4.61-3.05c-1.76-0.76-3.48-1.15-5.16-1.15c-1.82,0-3.46,0.46-4.94,1.36
			c-1.47,0.91-2.63,2.16-3.46,3.74s-1.25,3.34-1.25,5.26c0,1.96,0.43,3.75,1.28,5.35c0.85,1.6,2.03,2.86,3.52,3.76
			c1.49,0.91,3.14,1.36,4.96,1.36c1.64,0,3.56-0.53,5.78-1.58V818.63z"/>
	</g>
</g>
</svg>
