<?xml version="1.0" encoding="utf-8"?>
<!-- Generator: Adobe Illustrator 25.0.0, SVG Export Plug-In . SVG Version: 6.00 Build 0)  -->
<svg version="1.1" id="Camada_1" xmlns="http://www.w3.org/2000/svg" xmlns:xlink="http://www.w3.org/1999/xlink" x="0px" y="0px"
	 viewBox="0 0 1000 1000" style="enable-background:new 0 0 1000 1000;" xml:space="preserve">
<style type="text/css">
	.st0{fill-rule:evenodd;clip-rule:evenodd;fill:#25A3A8;}
	.st1{fill-rule:evenodd;clip-rule:evenodd;fill:#33B7C3;}
	.st2{fill:#33B7C3;}
</style>
<g>
	<path class="st0" d="M496.94,257.33c0,21.82,6.24,42.19,17.04,59.41c2.72,4.34,5.74,8.49,9.01,12.41
		c4.28,5.12,9.02,9.85,14.14,14.14c3.92,3.28,8.06,6.29,12.41,9.01c17.22-10.79,37.58-17.04,59.41-17.04
		c-21.34,0-40.68-8.58-54.76-22.48c-0.23-0.23-0.47-0.46-0.7-0.7c-13.9-14.07-22.48-33.41-22.48-54.76
		c0-21.7,8.87-41.33,23.18-55.45c-4.47-10.89-10.22-21.12-17.06-30.5c-9.04,7.56-16.87,16.52-23.15,26.55
		C503.18,215.14,496.94,235.51,496.94,257.33L496.94,257.33z M565.08,257.33c0,24.22,19.64,43.86,43.86,43.86
		c24.22,0,43.86-19.64,43.86-43.86c0-24.22-19.64-43.86-43.86-43.86C584.72,213.47,565.08,233.1,565.08,257.33L565.08,257.33z"/>
	<path class="st1" d="M608.94,335.26c-21.82,0-42.19,6.24-59.41,17.04c-14.37,9.01-26.55,21.19-35.56,35.56
		c10.79,17.22,17.04,37.58,17.04,59.41c0-43.04,34.89-77.93,77.93-77.93c21.7,0,41.32,8.87,55.45,23.18
		c10.89-4.47,21.12-10.22,30.5-17.06C673.57,349.95,642.27,335.26,608.94,335.26L608.94,335.26z M608.94,403.4
		c-24.22,0-43.86,19.64-43.86,43.86c0,24.22,19.64,43.86,43.86,43.86c24.22,0,43.86-19.64,43.86-43.86
		C652.8,423.04,633.17,403.4,608.94,403.4L608.94,403.4z"/>
	<path class="st0" d="M531.01,447.26c0-21.82-6.24-42.19-17.04-59.41c-9-14.36-21.2-26.55-35.56-35.56
		c-17.22,10.79-37.58,17.04-59.41,17.04c70.17,0,103.64,85.11,54.76,133.39c4.47,10.89,10.22,21.12,17.06,30.5
		C516.32,511.89,531.01,480.59,531.01,447.26L531.01,447.26z M462.87,447.26c0-24.22-19.64-43.86-43.86-43.86
		c-24.22,0-43.86,19.64-43.86,43.86c0,24.22,19.64,43.86,43.86,43.86C443.23,491.13,462.87,471.49,462.87,447.26L462.87,447.26z"/>
	<path class="st1" d="M419.01,301.19c24.22,0,43.86-19.64,43.86-43.86c0-24.22-19.64-43.86-43.86-43.86
		c-24.22,0-43.86,19.64-43.86,43.86C375.14,281.55,394.78,301.19,419.01,301.19L419.01,301.19z M504.96,329.14
		c3.28-3.92,6.29-8.06,9.01-12.41c-10.79-17.22-17.04-37.58-17.04-59.41c0,21.34-8.58,40.68-22.48,54.76
		c-0.23,0.23-0.46,0.47-0.7,0.7c-14.07,13.9-33.41,22.48-54.76,22.48c-21.7,0-41.33-8.87-55.45-23.18
		c-10.89,4.47-21.12,10.22-30.5,17.06c7.56,9.04,16.52,16.87,26.55,23.15c17.22,10.79,37.58,17.04,59.41,17.04
		c21.82,0,42.19-6.24,59.41-17.04c4.35-2.72,8.49-5.74,12.41-9.01C495.94,339,500.68,334.26,504.96,329.14L504.96,329.14z"/>
</g>
<g>
	<g>
		<path class="st2" d="M399.71,719.54l-9.48,0.46c-8.02,0-13.65-1.39-16.89-4.16c-3.24-2.78-4.86-7.79-4.86-15.04v-36.09h-44.41
			v42.56c0,7.56-3.08,11.64-9.25,12.26l-9.48,0.46c-8.02,0-13.65-1.39-16.89-4.16s-4.86-7.79-4.86-15.04V589.3
			c0-5.24,1.31-8.71,3.93-10.41s5.86-2.54,9.72-2.54l5.09,0.23c8.02,0,13.65,1.39,16.89,4.16c3.24,2.78,4.86,7.79,4.86,15.04v37.01
			h44.41V589.3c0-5.24,1.31-8.71,3.93-10.41s5.86-2.54,9.72-2.54l5.09,0.23c8.02,0,13.65,1.39,16.89,4.16s4.86,7.79,4.86,15.04
			v111.5C408.96,714.83,405.88,718.92,399.71,719.54z"/>
		<path class="st2" d="M421.68,584.44c3.86-3.86,9.1-5.78,15.73-5.78h66.85c7.09,0,11.26,2.47,12.49,7.4
			c0.77,3.39,1.16,6.09,1.16,8.1c0,10.79-4.63,16.19-13.88,16.19h-48.81v21.51h42.56c7.09,0,11.26,2.47,12.49,7.4
			c0.77,3.08,1.16,5.71,1.16,7.87c0,10.79-4.55,16.19-13.65,16.19h-42.56v24.29h49.97c7.09,0,11.26,2.47,12.49,7.4
			c0.77,3.39,1.16,6.09,1.16,8.1c0,10.95-4.63,16.42-13.88,16.42h-67.55c-6.63,0-11.87-1.93-15.73-5.78s-5.78-9.1-5.78-15.73v-97.85
			C415.9,593.54,417.82,588.3,421.68,584.44z"/>
		<path class="st2" d="M531.55,713.75c-3.86-3.86-5.78-9.1-5.78-15.73V589.07c0-5.24,1.31-8.71,3.93-10.41
			c2.62-1.7,5.86-2.54,9.72-2.54l5.09,0.23c8.02,0,13.65,1.39,16.89,4.16s4.86,7.79,4.86,15.04v91.37h43.49
			c6.94,0,11.18,2.54,12.72,7.63c0.77,3.39,1.16,6.09,1.16,8.1c0,11.26-4.78,16.89-14.34,16.89h-61.99
			C540.65,719.54,535.41,717.61,531.55,713.75z"/>
		<path class="st2" d="M661.78,719.54L652.3,720c-8.02,0-13.65-1.39-16.89-4.16c-3.24-2.78-4.86-7.79-4.86-15.04V591.85
			c0-3.08,0.81-5.55,2.43-7.4s4.13-3.32,7.52-4.4c10.33-3.55,23.05-5.32,38.17-5.32c20.82,0,36.97,4.47,48.46,13.42
			c11.49,8.94,17.23,21.36,17.23,37.24c0,15.11-4.7,27.14-14.11,36.09c-4.78,4.47-10.79,7.9-18.04,10.29s-15.5,3.59-24.75,3.59
			h-16.42v31.92C671.03,714.83,667.95,718.92,661.78,719.54z M697.98,639.04c3.47-3.08,5.21-7.63,5.21-13.65
			c0-5.86-1.81-10.37-5.44-13.53c-3.62-3.16-8.91-4.74-15.85-4.74c-5.09,0-8.79,0.23-11.1,0.69v35.86h12.26
			C689.54,643.66,694.51,642.12,697.98,639.04z"/>
	</g>
</g>
<g>
	<g>
		<path class="st2" d="M466.75,762.12l-1.78-4.88h-12.32l-1.83,4.88h-9.31l13.01-30.51h9.31l12.58,30.51H466.75z M455.17,750.63h7.4
			l-3.66-9.96L455.17,750.63z"/>
		<path class="st2" d="M511.2,733.09c2.54,1.37,4.53,3.24,5.96,5.64c1.44,2.39,2.15,5.09,2.15,8.07c0,3.02-0.72,5.74-2.15,8.16
			c-1.44,2.42-3.42,4.32-5.96,5.7c-2.54,1.38-5.38,2.07-8.51,2.07c-3.16,0-6-0.69-8.53-2.07c-2.52-1.38-4.5-3.28-5.94-5.7
			c-1.44-2.42-2.15-5.14-2.15-8.16c0-2.99,0.72-5.68,2.15-8.07c1.44-2.39,3.42-4.27,5.94-5.64c2.52-1.36,5.37-2.04,8.53-2.04
			C505.83,731.05,508.66,731.73,511.2,733.09z M499.1,739.67c-1.15,0.73-2.06,1.72-2.74,2.98c-0.68,1.26-1.02,2.66-1.02,4.2
			c0,1.54,0.34,2.95,1.02,4.22c0.68,1.28,1.6,2.29,2.74,3.03c1.15,0.74,2.39,1.11,3.72,1.11c1.31,0,2.52-0.37,3.63-1.11
			c1.12-0.74,2-1.74,2.63-3c0.64-1.26,0.96-2.68,0.96-4.24c0-1.54-0.32-2.94-0.96-4.2c-0.64-1.26-1.51-2.25-2.61-2.98
			c-1.1-0.72-2.32-1.09-3.66-1.09C501.49,738.58,500.25,738.94,499.1,739.67z"/>
		<path class="st2" d="M543.38,731.62h8.27v30.51h-7.7l-12.93-16.97v16.97h-8.31v-30.51h7.75l12.93,17.02V731.62z"/>
		<path class="st2" d="M576.72,746.32h7.79v12.4c-1.65,1.16-3.7,2.12-6.14,2.87c-2.44,0.75-4.74,1.13-6.92,1.13
			c-3.11,0-5.91-0.69-8.4-2.07c-2.5-1.38-4.45-3.27-5.88-5.68c-1.42-2.41-2.13-5.12-2.13-8.14c0-2.99,0.73-5.69,2.2-8.1
			s3.5-4.29,6.09-5.66c2.6-1.36,5.51-2.04,8.73-2.04c2.32,0,4.64,0.42,6.96,1.26c2.32,0.84,4.29,1.99,5.92,3.44l-5.14,6.18
			c-1.04-1.02-2.27-1.83-3.68-2.44s-2.78-0.91-4.11-0.91c-1.45,0-2.76,0.36-3.94,1.09c-1.17,0.73-2.1,1.72-2.76,2.98
			c-0.67,1.26-1,2.66-1,4.2c0,1.57,0.34,2.99,1.02,4.26c0.68,1.28,1.62,2.28,2.81,3c1.19,0.72,2.51,1.09,3.96,1.09
			c1.31,0,2.84-0.42,4.61-1.26V746.32z"/>
	</g>
</g>
</svg>
