<?xml version="1.0" encoding="utf-8"?>
<!-- Generator: Adobe Illustrator 25.0.0, SVG Export Plug-In . SVG Version: 6.00 Build 0)  -->
<svg version="1.1" id="Camada_1" xmlns="http://www.w3.org/2000/svg" xmlns:xlink="http://www.w3.org/1999/xlink" x="0px" y="0px"
	 viewBox="0 0 1000 1000" style="enable-background:new 0 0 1000 1000;" xml:space="preserve">
<style type="text/css">
	.st0{fill-rule:evenodd;clip-rule:evenodd;fill:#EEEEEF;}
	.st1{fill-rule:evenodd;clip-rule:evenodd;fill:#FFFFFF;}
	.st2{fill:#FFFFFF;}
</style>
<g>
	<g>
		<path class="st0" d="M252.74,412.07c0,20.2,5.78,39.06,15.77,55c2.52,4.02,5.31,7.86,8.35,11.49c3.97,4.74,8.35,9.12,13.09,13.09
			c3.63,3.03,7.46,5.82,11.49,8.35c15.94-9.99,34.8-15.77,55-15.77c-19.76,0-37.67-7.94-50.7-20.81c-0.22-0.21-0.43-0.43-0.65-0.65
			c-12.87-13.03-20.81-30.94-20.81-50.7c0-20.09,8.21-38.26,21.46-51.34c-4.14-10.08-9.46-19.55-15.79-28.24
			c-8.37,7-15.62,15.3-21.44,24.58C258.51,373.02,252.74,391.87,252.74,412.07L252.74,412.07z M315.82,412.07
			c0,22.43,18.18,40.61,40.61,40.61s40.61-18.18,40.61-40.61c0-22.43-18.18-40.61-40.61-40.61S315.82,389.65,315.82,412.07
			L315.82,412.07z"/>
		<path class="st1" d="M356.43,484.23c-20.2,0-39.06,5.78-55,15.77c-13.3,8.34-24.58,19.62-32.92,32.92
			c9.99,15.94,15.77,34.8,15.77,55c0-39.85,32.3-72.15,72.15-72.15c20.09,0,38.26,8.21,51.34,21.46
			c10.08-4.14,19.55-9.46,28.24-15.79C416.27,497.83,387.29,484.23,356.43,484.23L356.43,484.23z M356.43,547.32
			c-22.43,0-40.61,18.18-40.61,40.61c0,22.43,18.18,40.61,40.61,40.61s40.61-18.18,40.61-40.61
			C397.04,565.5,378.86,547.32,356.43,547.32L356.43,547.32z"/>
		<path class="st0" d="M284.28,587.93c0-20.2-5.78-39.06-15.77-55c-8.33-13.29-19.63-24.59-32.92-32.92
			c-15.94,9.99-34.8,15.77-55,15.77c64.96,0,95.96,78.8,50.7,123.5c4.14,10.08,9.46,19.55,15.79,28.24
			C270.68,647.76,284.28,618.78,284.28,587.93L284.28,587.93z M221.19,587.93c0-22.43-18.18-40.61-40.61-40.61
			c-22.43,0-40.61,18.18-40.61,40.61c0,22.43,18.18,40.61,40.61,40.61C203.01,628.54,221.19,610.35,221.19,587.93L221.19,587.93z"/>
		<path class="st1" d="M180.58,452.68c22.43,0,40.61-18.18,40.61-40.61c0-22.43-18.18-40.61-40.61-40.61
			c-22.43,0-40.61,18.18-40.61,40.61C139.97,434.5,158.15,452.68,180.58,452.68L180.58,452.68z M260.16,478.56
			c3.03-3.63,5.82-7.46,8.35-11.49c-9.99-15.94-15.77-34.8-15.77-55c0,19.76-7.94,37.66-20.81,50.7c-0.21,0.22-0.43,0.43-0.65,0.65
			c-13.03,12.87-30.94,20.81-50.7,20.81c-20.09,0-38.26-8.21-51.34-21.46c-10.08,4.14-19.55,9.46-28.24,15.79
			c7,8.37,15.29,15.62,24.58,21.44c15.94,9.99,34.8,15.77,55,15.77s39.06-5.78,55-15.77c4.02-2.52,7.86-5.31,11.49-8.35
			C251.81,487.69,256.2,483.31,260.16,478.56L260.16,478.56z"/>
	</g>
	<g>
		<g>
			<path class="st2" d="M577.2,566.73l-9.6,0.47c-8.11,0-13.81-1.4-17.09-4.21s-4.92-7.88-4.92-15.21v-36.51h-44.94v43.07
				c0,7.65-3.12,11.78-9.36,12.41l-9.6,0.47c-8.11,0-13.81-1.4-17.09-4.21c-3.28-2.81-4.92-7.88-4.92-15.21V434.95
				c0-5.31,1.33-8.82,3.98-10.53c2.65-1.72,5.93-2.57,9.83-2.57l5.15,0.23c8.11,0,13.81,1.4,17.09,4.21
				c3.28,2.81,4.92,7.88,4.92,15.21v37.45h44.94v-44c0-5.31,1.33-8.82,3.98-10.53c2.65-1.72,5.93-2.57,9.83-2.57l5.15,0.23
				c8.11,0,13.81,1.4,17.09,4.21c3.28,2.81,4.92,7.88,4.92,15.21v112.82C586.56,561.97,583.44,566.11,577.2,566.73z"/>
			<path class="st2" d="M599.43,430.04c3.9-3.9,9.21-5.85,15.92-5.85h67.65c7.18,0,11.39,2.5,12.64,7.49
				c0.78,3.43,1.17,6.16,1.17,8.19c0,10.92-4.68,16.38-14.04,16.38h-49.39v21.77h43.07c7.18,0,11.39,2.5,12.64,7.49
				c0.78,3.12,1.17,5.77,1.17,7.96c0,10.92-4.6,16.38-13.81,16.38h-43.07v24.58h50.56c7.18,0,11.39,2.5,12.64,7.49
				c0.78,3.43,1.17,6.16,1.17,8.19c0,11.08-4.68,16.62-14.04,16.62h-68.35c-6.71,0-12.02-1.95-15.92-5.85
				c-3.9-3.9-5.85-9.21-5.85-15.92v-99.01C593.58,439.24,595.53,433.94,599.43,430.04z"/>
			<path class="st2" d="M710.61,560.88c-3.9-3.9-5.85-9.21-5.85-15.92V434.72c0-5.31,1.33-8.82,3.98-10.53
				c2.65-1.72,5.93-2.57,9.83-2.57l5.15,0.23c8.11,0,13.81,1.4,17.09,4.21c3.28,2.81,4.92,7.88,4.92,15.21v92.46h44
				c7.02,0,11.31,2.58,12.87,7.72c0.78,3.43,1.17,6.16,1.17,8.19c0,11.39-4.84,17.09-14.51,17.09h-62.73
				C719.82,566.73,714.51,564.78,710.61,560.88z"/>
			<path class="st2" d="M842.38,566.73l-9.6,0.47c-8.11,0-13.81-1.4-17.09-4.21c-3.28-2.81-4.92-7.88-4.92-15.21V437.53
				c0-3.12,0.82-5.62,2.46-7.49s4.17-3.35,7.61-4.45c10.46-3.59,23.33-5.38,38.62-5.38c21.07,0,37.41,4.53,49.04,13.58
				c11.63,9.05,17.44,21.61,17.44,37.69c0,15.29-4.76,27.46-14.28,36.52c-4.84,4.53-10.92,8-18.26,10.42
				c-7.33,2.42-15.68,3.63-25.05,3.63h-16.62v32.3C851.75,561.97,848.63,566.11,842.38,566.73z M879.02,485.28
				c3.51-3.12,5.27-7.72,5.27-13.81c0-5.93-1.83-10.49-5.5-13.69c-3.67-3.2-9.01-4.8-16.03-4.8c-5.15,0-8.89,0.23-11.24,0.7v36.28
				h12.41C870.47,489.96,875.51,488.4,879.02,485.28z"/>
		</g>
	</g>
	<g>
		<g>
			<path class="st2" d="M808.35,609.82l-1.81-4.93h-12.46l-1.85,4.93h-9.42l13.17-30.87h9.42l12.73,30.87H808.35z M796.63,598.19
				h7.49l-3.7-10.08L796.63,598.19z"/>
			<path class="st2" d="M853.33,580.44c2.57,1.38,4.58,3.28,6.03,5.7c1.45,2.42,2.18,5.15,2.18,8.17c0,3.05-0.73,5.81-2.18,8.26
				c-1.45,2.45-3.46,4.38-6.03,5.77c-2.57,1.4-5.44,2.09-8.61,2.09c-3.2,0-6.08-0.7-8.63-2.09c-2.55-1.39-4.56-3.32-6.01-5.77
				c-1.45-2.45-2.18-5.2-2.18-8.26c0-3.02,0.73-5.75,2.18-8.17s3.46-4.32,6.01-5.7c2.55-1.38,5.43-2.07,8.63-2.07
				C847.89,578.38,850.76,579.07,853.33,580.44z M841.09,587.09c-1.16,0.73-2.08,1.74-2.77,3.02c-0.69,1.28-1.04,2.69-1.04,4.25
				c0,1.56,0.34,2.98,1.04,4.27c0.69,1.29,1.61,2.31,2.77,3.06c1.16,0.75,2.42,1.12,3.77,1.12c1.32,0,2.55-0.37,3.68-1.12
				c1.13-0.75,2.02-1.76,2.67-3.04c0.64-1.28,0.97-2.71,0.97-4.29c0-1.56-0.32-2.97-0.97-4.25c-0.65-1.28-1.53-2.28-2.64-3.02
				c-1.12-0.73-2.35-1.1-3.7-1.1C843.5,585.99,842.25,586.36,841.09,587.09z"/>
			<path class="st2" d="M885.9,578.95h8.37v30.87h-7.79l-13.08-17.17v17.17h-8.41v-30.87h7.84l13.08,17.22V578.95z"/>
			<path class="st2" d="M919.63,593.83h7.88v12.55c-1.67,1.17-3.74,2.14-6.21,2.91c-2.47,0.76-4.8,1.14-7,1.14
				c-3.14,0-5.97-0.7-8.5-2.09c-2.53-1.39-4.51-3.31-5.95-5.75s-2.16-5.18-2.16-8.24c0-3.02,0.74-5.75,2.22-8.19
				s3.54-4.34,6.17-5.73c2.63-1.38,5.57-2.07,8.83-2.07c2.35,0,4.7,0.43,7.05,1.28c2.35,0.85,4.34,2.01,5.99,3.48l-5.2,6.25
				c-1.06-1.03-2.3-1.85-3.72-2.47c-1.42-0.62-2.81-0.92-4.16-0.92c-1.47,0-2.8,0.37-3.99,1.1c-1.19,0.73-2.12,1.74-2.8,3.02
				c-0.68,1.28-1.01,2.69-1.01,4.25c0,1.58,0.34,3.02,1.04,4.32c0.69,1.29,1.64,2.31,2.84,3.04c1.2,0.73,2.54,1.1,4.01,1.1
				c1.32,0,2.88-0.42,4.67-1.28V593.83z"/>
		</g>
	</g>
</g>
</svg>
